<svg width="40" height="40" viewBox="0 0 40 40" fill="none" xmlns="http://www.w3.org/2000/svg">
<path d="M31.8846 2.61621e-07H12.4008C11.2218 -0.000302314 10.0575 0.261854 8.99245 0.767449C7.92738 1.27304 6.98821 2.0094 6.24309 2.92308C6.22848 2.94 6.21309 2.95692 6.19848 2.97462L6.15386 3.02385L6.11001 3.07692C6.0954 3.09462 6.08002 3.11154 6.0654 3.12846C6.05078 3.14538 6.0354 3.16308 6.02155 3.18077L5.97694 3.23077L5.93232 3.28308L5.88848 3.33462L5.84617 3.38846C5.83155 3.40615 5.81617 3.42308 5.80232 3.44077L5.75771 3.49231L5.71309 3.54462C5.69925 3.56231 5.68386 3.57923 5.66925 3.59692L5.62463 3.64923L5.58078 3.70077L5.53617 3.75308C5.52155 3.77077 5.50617 3.78769 5.49232 3.80538L5.44771 3.85692L5.40309 3.90923L5.35925 3.96154L5.31463 4.01385C5.30001 4.03077 5.28463 4.04769 5.27078 4.06538L5.22617 4.11769L5.18155 4.17L5.13771 4.22154L5.09309 4.27385C5.07848 4.29154 5.06309 4.30846 5.04925 4.32615L5.00002 4.37846C4.9854 4.39538 4.97002 4.41231 4.95617 4.43L4.91155 4.48231L4.86694 4.53462L4.82309 4.58615L4.77848 4.63846C4.76386 4.65615 4.74848 4.67308 4.73463 4.69077C4.72078 4.70846 4.70463 4.72538 4.69002 4.74231L4.6454 4.79462L4.60386 4.84615L4.55925 4.89846C4.54463 4.91538 4.52925 4.93231 4.5154 4.95L4.47078 5L4.42617 5.05231L4.38463 5.10692L4.34002 5.15923C4.3254 5.17692 4.31002 5.19385 4.29617 5.21154L4.25155 5.26385C4.23694 5.28077 4.22155 5.29769 4.20771 5.31538L4.16309 5.36769L4.11848 5.42L4.07463 5.47154L4.03001 5.52385C4.0154 5.54154 4.00002 5.55846 3.98617 5.57615L3.94155 5.62846C3.92694 5.64538 3.91155 5.66231 3.89694 5.68L3.85309 5.73231L3.80848 5.78462C3.79386 5.80154 3.77848 5.81846 3.76463 5.83615L3.72002 5.88846C3.7054 5.90615 3.69002 5.92308 3.67617 5.94077L3.63155 5.99308C3.61694 6.01 3.60155 6.02692 3.58694 6.04462L3.53848 6.09692L3.49386 6.14923C3.47925 6.16615 3.46386 6.18308 3.45002 6.20077L3.4054 6.25308L3.36309 6.30769L3.31925 6.36C3.30463 6.37692 3.28925 6.39385 3.27463 6.41154C3.26002 6.42923 3.24463 6.44615 3.23078 6.46385L3.18617 6.51615C3.17155 6.53308 3.15617 6.55 3.14155 6.56769L3.09771 6.61538L3.05309 6.66769L3.00925 6.71923L2.96463 6.77154C2.95002 6.78923 2.93463 6.80615 2.92078 6.82385L2.87617 6.87615C2.86155 6.89308 2.84617 6.91 2.83155 6.92769L2.78771 6.98L2.74309 7.03231C2.72848 7.04923 2.71309 7.06615 2.69925 7.08385L2.65463 7.13615L2.61002 7.18846L2.56617 7.24077C2.55155 7.25769 2.53617 7.27461 2.52155 7.29231C2.50694 7.31 2.49155 7.32692 2.47771 7.34461L2.43309 7.39692L2.38848 7.44846L2.34463 7.50077L2.30002 7.55308L2.25617 7.60538C2.24155 7.62231 2.22617 7.63923 2.21155 7.65692C2.19694 7.67462 2.18155 7.69154 2.16771 7.70923L2.12309 7.76154C2.10848 7.77846 2.09309 7.79538 2.07848 7.81308L2.03463 7.86538L1.99002 7.91769C1.9754 7.93538 1.96002 7.95231 1.94617 7.97C1.93232 7.98769 1.91617 8.00385 1.90155 8.02154C1.88694 8.03923 1.87155 8.05615 1.85771 8.07385L1.81309 8.12615C0.638371 9.53037 -0.00362367 11.3038 1.5386e-05 13.1346V32.1985C-0.00366122 34.2631 0.812669 36.2447 2.26955 37.7076C3.72643 39.1706 5.70462 39.9951 7.76925 40H26.7692C28.5945 40.0018 30.3615 39.3573 31.7569 38.1808L31.8092 38.1362L31.8608 38.0915L31.9131 38.0469L31.9646 38.0023C31.9823 37.9885 31.9992 37.9731 32.0169 37.9585L32.0685 37.9138L32.1208 37.8692L32.1723 37.8246L32.2239 37.7808L32.2762 37.7362L32.3285 37.6923L32.3808 37.6477L32.4323 37.6031L32.4846 37.5585C32.5023 37.5446 32.5192 37.5292 32.5362 37.5146L32.5885 37.47L32.64 37.4254L32.6923 37.3808L32.7439 37.3362C32.7616 37.3223 32.7785 37.3069 32.7954 37.2923L32.8477 37.2477L32.8992 37.2031L32.9516 37.1585L33.0039 37.1138L33.0554 37.07L33.1069 37.0254L33.1592 36.9808L33.2108 36.9361L33.2631 36.8923L33.3146 36.8477L33.3669 36.8031L33.4185 36.7585L33.4708 36.7138L33.5223 36.67L33.5746 36.6254L33.6262 36.5808L33.6785 36.5362L33.73 36.4915C33.7477 36.4777 33.7646 36.4623 33.7816 36.4477L33.8339 36.4031L33.8854 36.3585L33.9377 36.3138L33.9892 36.2692C34.0069 36.2554 34.0239 36.24 34.0416 36.2254L34.0931 36.1808L34.1454 36.1362L34.1969 36.0915L34.2492 36.0469C34.2669 36.0331 34.2831 36.0177 34.3008 36.0031L34.3531 35.9585L34.4046 35.9138L34.4562 35.8692L34.5085 35.8246C34.5262 35.8108 34.5431 35.7954 34.56 35.7808L34.6154 35.7354L34.6669 35.6908L34.7192 35.6462L34.7708 35.6023L34.8231 35.5577L34.8746 35.5131L34.9269 35.4685L34.9785 35.4238L35.0308 35.38L35.0823 35.3354L35.1346 35.2908L35.1862 35.2462L35.2377 35.2015C35.2554 35.1877 35.2723 35.1723 35.29 35.1577L35.3416 35.1131L35.3939 35.0685L35.4454 35.0238L35.4977 34.9792C35.5154 34.9654 35.5323 34.95 35.5492 34.9354L35.6016 34.8908L35.6531 34.8461L35.7054 34.8015L35.7569 34.7569C35.7746 34.7431 35.7915 34.7277 35.8092 34.7131L35.8608 34.6685L35.9131 34.6238L35.9646 34.5792L36.0162 34.5354L36.0685 34.4908L36.12 34.4462L36.1723 34.4015L36.2246 34.3569L36.2762 34.3131L36.3277 34.2685L36.38 34.2238L36.4316 34.1792L36.4839 34.1346L36.5354 34.0908L36.5877 34.0462L36.6392 34.0015L36.6916 33.9569L36.7431 33.9123L36.7954 33.8677L36.8469 33.8238L36.8992 33.7792L36.9508 33.7346C37.8618 32.9831 38.5951 32.0392 39.0981 30.9707C39.6011 29.9022 39.8613 28.7356 39.86 27.5546V8C39.8617 6.95101 39.6568 5.91196 39.2569 4.94218C38.857 3.97241 38.27 3.09091 37.5294 2.34802C36.7888 1.60513 35.9091 1.01541 34.9406 0.612529C33.972 0.209653 32.9336 0.0015143 31.8846 2.61621e-07ZM37.2 27.5554C37.2012 28.2545 37.0647 28.9471 36.7983 29.5934C36.5319 30.2398 36.1407 30.8274 35.6472 31.3226C35.1537 31.8178 34.5675 32.211 33.922 32.4797C33.2766 32.7483 32.5845 32.8872 31.8854 32.8885H12.4C11.7009 32.8872 11.0088 32.7483 10.3634 32.4797C9.71791 32.211 9.1317 31.8178 8.63819 31.3226C8.14468 30.8274 7.75355 30.2398 7.48712 29.5934C7.22069 28.9471 7.08419 28.2545 7.0854 27.5554V8C7.08295 6.58796 7.64148 5.23276 8.63814 4.23249C9.6348 3.23223 10.988 2.6688 12.4 2.66615H31.8854C33.2974 2.6688 34.6506 3.23223 35.6473 4.23249C36.6439 5.23276 37.2025 6.58796 37.2 8V27.5554Z" fill="#21CCA7"/>
</svg>
