<svg width="100" height="40" viewBox="0 0 100 40" fill="none" xmlns="http://www.w3.org/2000/svg">
<path d="M95.8648 19.0216L99.7732 14.6055C99.8014 14.5723 99.8196 14.5318 99.8257 14.4887C99.8319 14.4456 99.8257 14.4016 99.8079 14.3619C99.7901 14.3222 99.7615 14.2883 99.7253 14.2641C99.689 14.24 99.6467 14.2266 99.6032 14.2255H95.9878C95.9554 14.2252 95.9233 14.2319 95.8937 14.2452C95.8641 14.2585 95.8377 14.278 95.8163 14.3024L91.5794 19.1816C91.5482 19.2152 91.5078 19.2388 91.4632 19.2494C91.4186 19.2599 91.3719 19.257 91.329 19.2409C91.2861 19.2248 91.249 19.1963 91.2223 19.159C91.1957 19.1218 91.1807 19.0774 91.1794 19.0316V9.117C91.1794 9.05659 91.1557 8.99858 91.1134 8.95543C91.0711 8.91228 91.0136 8.88744 90.9532 8.88623H87.8655C87.8043 8.88623 87.7456 8.91054 87.7024 8.95382C87.6591 8.9971 87.6348 9.0558 87.6348 9.117V26.4378C87.6348 26.499 87.6591 26.5577 87.7024 26.6009C87.7456 26.6442 87.8043 26.6685 87.8655 26.6685H90.9532C91.0136 26.6673 91.0711 26.6425 91.1134 26.5993C91.1557 26.5562 91.1794 26.4982 91.1794 26.4378V23.6524C91.1793 23.6224 91.1851 23.5926 91.1966 23.5649C91.2081 23.5372 91.225 23.512 91.2463 23.4908L92.9901 21.7408C93.0146 21.7162 93.0445 21.6975 93.0773 21.6863C93.1102 21.6751 93.1452 21.6715 93.1796 21.676C93.2141 21.6804 93.247 21.6928 93.2759 21.712C93.3048 21.7313 93.3289 21.7569 93.3463 21.787L96.144 26.5562C96.1642 26.5901 96.1928 26.6182 96.227 26.6379C96.2613 26.6575 96.2999 26.6681 96.3394 26.6685H99.7678C99.8078 26.6677 99.8469 26.6566 99.8812 26.6362C99.9156 26.6157 99.9441 26.5867 99.9638 26.552C99.9836 26.5172 99.994 26.4779 99.9941 26.438C99.9941 26.398 99.9837 26.3587 99.964 26.3239L95.8355 19.2916C95.8115 19.2498 95.8011 19.2015 95.8059 19.1534C95.8108 19.1054 95.8305 19.0601 95.8625 19.0239" fill="black"/>
<path d="M81.4477 14.0129C80.1044 13.9888 78.7961 14.4418 77.7554 15.2913C77.7216 15.3173 77.6813 15.3335 77.639 15.338C77.5966 15.3425 77.5538 15.3352 77.5153 15.3169C77.4769 15.2986 77.4442 15.27 77.421 15.2342C77.3978 15.1985 77.3849 15.157 77.3838 15.1144V14.4536C77.3839 14.3931 77.3601 14.335 77.3176 14.2918C77.2752 14.2486 77.2175 14.2239 77.1569 14.2229H74.2308C74.1696 14.2229 74.1109 14.2472 74.0676 14.2905C74.0243 14.3337 74 14.3924 74 14.4536V26.4375C74 26.4987 74.0243 26.5574 74.0676 26.6007C74.1109 26.6439 74.1696 26.6683 74.2308 26.6683H77.3185C77.3797 26.6683 77.4384 26.6439 77.4816 26.6007C77.5249 26.5574 77.5492 26.4987 77.5492 26.4375V18.3836C77.5495 18.3299 77.5686 18.2779 77.6031 18.2367C77.8913 17.8774 78.2579 17.5888 78.6748 17.393C79.0917 17.1971 79.5479 17.0992 80.0085 17.1067C80.3539 17.0749 80.7018 17.1284 81.0217 17.2625C81.3416 17.3966 81.6237 17.6073 81.8431 17.876C82.261 18.6187 82.4459 19.4699 82.3738 20.319V26.4375C82.3738 26.4987 82.3982 26.5574 82.4414 26.6007C82.4847 26.6439 82.5434 26.6683 82.6046 26.6683H85.7154C85.7766 26.6683 85.8353 26.6439 85.8786 26.6007C85.9218 26.5574 85.9462 26.4987 85.9462 26.4375V19.1529C85.9462 17.3067 85.5977 15.9713 84.91 15.186C84.2223 14.4006 83.0638 14.016 81.4554 14.016" fill="black"/>
<path d="M68.8399 15.0212C68.8382 15.065 68.8241 15.1074 68.7992 15.1435C68.7744 15.1795 68.7397 15.2078 68.6994 15.2249C68.659 15.242 68.6146 15.2473 68.5714 15.2401C68.5282 15.2329 68.4879 15.2135 68.4553 15.1843C67.9968 14.7695 67.4602 14.4503 66.877 14.2452C66.2938 14.0401 65.6755 13.9532 65.0584 13.9897C64.2873 13.9624 63.5199 14.1069 62.8117 14.4129C62.1035 14.719 61.4723 15.1787 60.9637 15.7589C59.8759 17.0948 59.3208 18.7859 59.4053 20.5066C59.3181 22.2236 59.8824 23.9101 60.9853 25.2289C61.5219 25.8101 62.1789 26.2673 62.9104 26.5684C63.6419 26.8696 64.4303 27.0076 65.2207 26.9727C65.8339 27.0213 66.4501 26.9301 67.023 26.7062C67.596 26.4822 68.1106 26.1312 68.5284 25.6797C68.559 25.6452 68.5994 25.6207 68.6441 25.6093C68.6889 25.598 68.736 25.6004 68.7794 25.6161C68.8228 25.6318 68.8605 25.6602 68.8876 25.6976C68.9147 25.735 68.93 25.7797 68.9314 25.8258V26.4412C68.9314 26.5024 68.9557 26.5611 68.999 26.6044C69.0423 26.6477 69.101 26.672 69.1622 26.672H72.1099C72.1711 26.672 72.2298 26.6477 72.2731 26.6044C72.3163 26.5611 72.3407 26.5024 72.3407 26.4412V14.4535C72.3407 14.3923 72.3163 14.3336 72.2731 14.2903C72.2298 14.2471 72.1711 14.2227 72.1099 14.2227H69.0676C69.0064 14.2227 68.9477 14.2471 68.9044 14.2903C68.8611 14.3336 68.8368 14.3923 68.8368 14.4535L68.8399 15.0212ZM68.1599 22.9666L68.143 22.9851C67.8865 23.2872 67.5638 23.5262 67.2 23.6834C66.8362 23.8407 66.4411 23.9121 66.0453 23.892H65.986C65.5902 23.9121 65.1951 23.8407 64.8313 23.6834C64.4675 23.5262 64.1449 23.2872 63.8884 22.9851L63.8714 22.9666C63.3157 22.2563 63.0364 21.3686 63.0853 20.4681C63.0668 19.8216 63.1955 19.1793 63.4614 18.5897L63.4884 18.5381C63.5922 18.3328 63.7214 18.1413 63.873 17.9681C64.1324 17.6735 64.4539 17.4401 64.8144 17.2846C65.1748 17.1292 65.5653 17.0555 65.9576 17.0689H66.076C66.4684 17.0554 66.8588 17.1291 67.2193 17.2846C67.5797 17.4401 67.9012 17.6735 68.1607 17.9681C68.312 18.1415 68.4412 18.3329 68.5453 18.5381L68.5722 18.5897C68.8382 19.1793 68.9668 19.8216 68.9484 20.4681C68.9972 21.3686 68.7179 22.2563 68.1622 22.9666" fill="black"/>
<path d="M52.498 13.9891C51.8808 13.9526 51.2625 14.0394 50.6793 14.2446C50.096 14.4497 49.5595 14.7689 49.101 15.1837C49.0684 15.213 49.0281 15.2323 48.9849 15.2395C48.9417 15.2467 48.8973 15.2414 48.857 15.2243C48.8166 15.2072 48.782 15.179 48.7571 15.1429C48.7322 15.1068 48.7181 15.0644 48.7164 15.0206V9.11602C48.7164 9.05482 48.6921 8.99612 48.6488 8.95284C48.6056 8.90957 48.5469 8.88525 48.4857 8.88525H45.3987C45.3375 8.88525 45.2788 8.90957 45.2356 8.95284C45.1923 8.99612 45.168 9.05482 45.168 9.11602V26.4368C45.168 26.498 45.1923 26.5567 45.2356 26.6C45.2788 26.6432 45.3375 26.6676 45.3987 26.6676H48.3941C48.4553 26.6676 48.514 26.6432 48.5573 26.6C48.6006 26.5567 48.6249 26.498 48.6249 26.4368V25.8214C48.6265 25.7753 48.6418 25.7308 48.669 25.6935C48.6962 25.6562 48.7338 25.6279 48.7772 25.6123C48.8206 25.5966 48.8677 25.5944 48.9124 25.6057C48.9571 25.6171 48.9973 25.6416 49.028 25.676C49.4499 26.1296 49.9692 26.4816 50.5468 26.7056C51.1243 26.9295 51.7452 27.0196 52.3626 26.9691C53.1476 27.003 53.9305 26.8646 54.6563 26.5634C55.382 26.2623 56.033 25.8058 56.5634 25.226C57.6592 23.9036 58.2189 22.2182 58.1318 20.5029C58.2165 18.7838 57.6656 17.0936 56.5841 15.7545C56.0781 15.1749 55.4489 14.7156 54.7426 14.4103C54.0363 14.105 53.2707 13.9614 52.5018 13.9899M53.6864 22.9668L53.6695 22.9853C53.413 23.2874 53.0903 23.5264 52.7266 23.6836C52.3628 23.8409 51.9676 23.9123 51.5718 23.8922H51.5126C51.1168 23.9123 50.7216 23.8409 50.3578 23.6836C49.9941 23.5264 49.6714 23.2874 49.4149 22.9853L49.398 22.9668C48.8423 22.2565 48.563 21.3688 48.6118 20.4683C48.5934 19.8218 48.722 19.1795 48.988 18.5899L49.0149 18.5383C49.1187 18.333 49.2479 18.1415 49.3995 17.9683C49.659 17.6738 49.9805 17.4403 50.3409 17.2848C50.7014 17.1294 51.0918 17.0557 51.4841 17.0691H51.5987C51.9911 17.0556 52.3815 17.1293 52.742 17.2848C53.1024 17.4403 53.4239 17.6737 53.6834 17.9683C53.8349 18.1415 53.9642 18.333 54.068 18.5383L54.0949 18.5899C54.3609 19.1795 54.4895 19.8218 54.471 20.4683C54.5199 21.3688 54.2406 22.2565 53.6849 22.9668" fill="black"/>
<path d="M31.8846 2.61621e-07H12.4008C11.2218 -0.000302314 10.0575 0.261855 8.99245 0.767449C7.92738 1.27304 6.98821 2.0094 6.24309 2.92308C6.22848 2.94 6.21309 2.95692 6.19848 2.97462L6.15386 3.02385L6.11001 3.07692C6.0954 3.09462 6.08002 3.11154 6.0654 3.12846C6.05078 3.14538 6.0354 3.16308 6.02155 3.18077L5.97694 3.23077L5.93232 3.28308L5.88848 3.33462L5.84617 3.38846C5.83155 3.40615 5.81617 3.42308 5.80232 3.44077L5.75771 3.49231L5.71309 3.54462C5.69925 3.56231 5.68386 3.57923 5.66925 3.59692L5.62463 3.64923L5.58078 3.70077L5.53617 3.75308C5.52155 3.77077 5.50617 3.78769 5.49232 3.80538L5.44771 3.85692L5.40309 3.90923L5.35925 3.96154L5.31463 4.01385C5.30002 4.03077 5.28463 4.04769 5.27078 4.06538L5.22617 4.11769L5.18155 4.17L5.13771 4.22154L5.09309 4.27385C5.07848 4.29154 5.06309 4.30846 5.04925 4.32615L5.00002 4.37846C4.9854 4.39538 4.97001 4.41231 4.95617 4.43L4.91155 4.48231L4.86694 4.53462L4.82309 4.58615L4.77848 4.63846C4.76386 4.65615 4.74848 4.67308 4.73463 4.69077C4.72078 4.70846 4.70463 4.72538 4.69002 4.74231L4.6454 4.79462L4.60386 4.84615L4.55925 4.89846C4.54463 4.91538 4.52925 4.93231 4.5154 4.95L4.47078 5L4.42617 5.05231L4.38463 5.10692L4.34002 5.15923C4.3254 5.17692 4.31002 5.19385 4.29617 5.21154L4.25155 5.26385C4.23694 5.28077 4.22155 5.29769 4.20771 5.31538L4.16309 5.36769L4.11848 5.42L4.07463 5.47154L4.03002 5.52385C4.0154 5.54154 4.00002 5.55846 3.98617 5.57615L3.94155 5.62846C3.92694 5.64538 3.91155 5.66231 3.89694 5.68L3.85309 5.73231L3.80848 5.78462C3.79386 5.80154 3.77848 5.81846 3.76463 5.83615L3.72002 5.88846C3.7054 5.90615 3.69002 5.92308 3.67617 5.94077L3.63155 5.99308C3.61694 6.01 3.60155 6.02692 3.58694 6.04462L3.53848 6.09692L3.49386 6.14923C3.47925 6.16615 3.46386 6.18308 3.45002 6.20077L3.4054 6.25308L3.36309 6.30769L3.31925 6.36C3.30463 6.37692 3.28925 6.39385 3.27463 6.41154C3.26002 6.42923 3.24463 6.44615 3.23078 6.46385L3.18617 6.51615C3.17155 6.53308 3.15617 6.55 3.14155 6.56769L3.09771 6.61538L3.05309 6.66769L3.00925 6.71923L2.96463 6.77154C2.95002 6.78923 2.93463 6.80615 2.92078 6.82385L2.87617 6.87615C2.86155 6.89308 2.84617 6.91 2.83155 6.92769L2.78771 6.98L2.74309 7.03231C2.72848 7.04923 2.71309 7.06615 2.69925 7.08385L2.65463 7.13615L2.61002 7.18846L2.56617 7.24077C2.55155 7.25769 2.53617 7.27461 2.52155 7.29231C2.50694 7.31 2.49155 7.32692 2.47771 7.34462L2.43309 7.39692L2.38848 7.44846L2.34463 7.50077L2.30002 7.55308L2.25617 7.60538C2.24155 7.62231 2.22617 7.63923 2.21155 7.65692C2.19694 7.67462 2.18155 7.69154 2.16771 7.70923L2.12309 7.76154C2.10848 7.77846 2.09309 7.79538 2.07848 7.81308L2.03463 7.86538L1.99002 7.91769C1.9754 7.93538 1.96002 7.95231 1.94617 7.97C1.93232 7.98769 1.91617 8.00385 1.90155 8.02154C1.88694 8.03923 1.87155 8.05615 1.85771 8.07385L1.81309 8.12615C0.638371 9.53037 -0.00362367 11.3038 1.5386e-05 13.1346V32.1985C-0.00366122 34.2631 0.812669 36.2447 2.26955 37.7076C3.72643 39.1706 5.70462 39.9951 7.76925 40H26.7692C28.5945 40.0018 30.3615 39.3573 31.7569 38.1808L31.8092 38.1362L31.8608 38.0915L31.9131 38.0469L31.9646 38.0023C31.9823 37.9885 31.9992 37.9731 32.0169 37.9585L32.0685 37.9138L32.1208 37.8692L32.1723 37.8246L32.2239 37.7808L32.2762 37.7362L32.3285 37.6923L32.3808 37.6477L32.4323 37.6031L32.4846 37.5585C32.5023 37.5446 32.5192 37.5292 32.5362 37.5146L32.5885 37.47L32.64 37.4254L32.6923 37.3808L32.7439 37.3362C32.7616 37.3223 32.7785 37.3069 32.7954 37.2923L32.8477 37.2477L32.8992 37.2031L32.9516 37.1585L33.0039 37.1138L33.0554 37.07L33.1069 37.0254L33.1592 36.9808L33.2108 36.9362L33.2631 36.8923L33.3146 36.8477L33.3669 36.8031L33.4185 36.7585L33.4708 36.7138L33.5223 36.67L33.5746 36.6254L33.6262 36.5808L33.6785 36.5362L33.73 36.4915C33.7477 36.4777 33.7646 36.4623 33.7816 36.4477L33.8339 36.4031L33.8854 36.3585L33.9377 36.3138L33.9892 36.2692C34.0069 36.2554 34.0239 36.24 34.0416 36.2254L34.0931 36.1808L34.1454 36.1362L34.1969 36.0915L34.2492 36.0469C34.2669 36.0331 34.2831 36.0177 34.3008 36.0031L34.3531 35.9585L34.4046 35.9138L34.4562 35.8692L34.5085 35.8246C34.5262 35.8108 34.5431 35.7954 34.56 35.7808L34.6154 35.7354L34.6669 35.6908L34.7192 35.6462L34.7708 35.6023L34.8231 35.5577L34.8746 35.5131L34.9269 35.4685L34.9785 35.4238L35.0308 35.38L35.0823 35.3354L35.1346 35.2908L35.1862 35.2462L35.2377 35.2015C35.2554 35.1877 35.2723 35.1723 35.29 35.1577L35.3416 35.1131L35.3939 35.0685L35.4454 35.0238L35.4977 34.9792C35.5154 34.9654 35.5323 34.95 35.5492 34.9354L35.6016 34.8908L35.6531 34.8462L35.7054 34.8015L35.7569 34.7569C35.7746 34.7431 35.7915 34.7277 35.8092 34.7131L35.8608 34.6685L35.9131 34.6238L35.9646 34.5792L36.0162 34.5354L36.0685 34.4908L36.12 34.4462L36.1723 34.4015L36.2246 34.3569L36.2762 34.3131L36.3277 34.2685L36.38 34.2238L36.4316 34.1792L36.4839 34.1346L36.5354 34.0908L36.5877 34.0462L36.6392 34.0015L36.6916 33.9569L36.7431 33.9123L36.7954 33.8677L36.8469 33.8238L36.8992 33.7792L36.9508 33.7346C37.8618 32.9831 38.5951 32.0392 39.0981 30.9707C39.6011 29.9022 39.8613 28.7356 39.86 27.5546V8C39.8617 6.95101 39.6568 5.91196 39.2569 4.94219C38.857 3.97241 38.27 3.09091 37.5294 2.34802C36.7888 1.60513 35.9091 1.01541 34.9406 0.612529C33.972 0.209653 32.9336 0.0015143 31.8846 2.61621e-07M37.2 27.5554C37.2012 28.2545 37.0647 28.9471 36.7983 29.5934C36.5319 30.2398 36.1407 30.8274 35.6472 31.3226C35.1537 31.8178 34.5675 32.211 33.922 32.4797C33.2766 32.7483 32.5845 32.8872 31.8854 32.8885H12.4C11.7009 32.8872 11.0088 32.7483 10.3634 32.4797C9.71791 32.211 9.1317 31.8178 8.63819 31.3226C8.14468 30.8274 7.75355 30.2398 7.48712 29.5934C7.22069 28.9471 7.08419 28.2545 7.0854 27.5554V8C7.08295 6.58796 7.64148 5.23276 8.63814 4.23249C9.6348 3.23223 10.988 2.6688 12.4 2.66615H31.8854C33.2974 2.6688 34.6506 3.23223 35.6473 4.23249C36.6439 5.23276 37.2025 6.58796 37.2 8V27.5554Z" fill="#21CCA7"/>
<path d="M29.2317 8.88854H28.2017C27.859 8.88934 27.5239 8.98964 27.2372 9.17727C26.9504 9.3649 26.7243 9.63177 26.5863 9.94546L26.5809 9.94931L26.5571 10.0162C26.544 10.0493 26.5317 10.0832 26.521 10.117L22.3571 21.7324C22.3424 21.7762 22.3142 21.8143 22.2767 21.8412C22.2392 21.8682 22.1941 21.8827 22.1479 21.8827C22.1017 21.8827 22.0566 21.8682 22.0191 21.8412C21.9815 21.8143 21.9534 21.7762 21.9386 21.7324L17.7102 9.94931L17.6933 9.94085C17.5549 9.62861 17.3291 9.36311 17.0431 9.17638C16.7571 8.98965 16.4232 8.88968 16.0817 8.88854H11.7425C11.7122 8.88854 11.6822 8.89451 11.6542 8.9061C11.6262 8.9177 11.6007 8.9347 11.5793 8.95613C11.5579 8.97756 11.5409 9.003 11.5293 9.031C11.5177 9.05899 11.5117 9.089 11.5117 9.11931V26.437C11.5117 26.4673 11.5177 26.4973 11.5293 26.5253C11.5409 26.5533 11.5579 26.5787 11.5793 26.6002C11.6007 26.6216 11.6262 26.6386 11.6542 26.6502C11.6822 26.6618 11.7122 26.6678 11.7425 26.6678H14.8302C14.8914 26.6678 14.9501 26.6435 14.9934 26.6002C15.0366 26.5569 15.0609 26.4982 15.0609 26.437V13.6508C15.0616 13.6108 15.0727 13.5716 15.0931 13.5372C15.1134 13.5027 15.1424 13.4741 15.1772 13.4543C15.212 13.4344 15.2513 13.4239 15.2913 13.4239C15.3314 13.4238 15.3707 13.4342 15.4056 13.4539C15.5833 13.5586 15.7193 13.7217 15.7902 13.9155L19.8671 25.307L19.8725 25.3255C19.9687 25.7081 20.1898 26.0478 20.5008 26.2906C20.8117 26.5335 21.1948 26.6656 21.5894 26.6662H22.6979C23.0924 26.6656 23.4755 26.5335 23.7865 26.2906C24.0975 26.0478 24.3186 25.7081 24.4148 25.3255C24.4162 25.3197 24.418 25.3141 24.4202 25.3085L28.4971 13.9401C28.5012 13.9344 28.5046 13.9282 28.5071 13.9216C28.5761 13.727 28.7108 13.5624 28.8879 13.4562C28.9227 13.4363 28.962 13.4258 29.0021 13.4257C29.0422 13.4257 29.0816 13.436 29.1165 13.4558C29.1513 13.4756 29.1804 13.5042 29.2009 13.5386C29.2214 13.5731 29.2325 13.6123 29.2333 13.6524V26.437C29.2333 26.4982 29.2576 26.5569 29.3008 26.6002C29.3441 26.6435 29.4028 26.6678 29.464 26.6678H32.5517C32.6129 26.6678 32.6716 26.6435 32.7149 26.6002C32.7582 26.5569 32.7825 26.4982 32.7825 26.437V9.117C32.7825 9.0558 32.7582 8.9971 32.7149 8.95382C32.6716 8.91054 32.6129 8.88623 32.5517 8.88623L29.2317 8.88854Z" fill="black"/>
</svg>
