<svg width="130" height="52" viewBox="0 0 130 52" fill="none" xmlns="http://www.w3.org/2000/svg">
<path d="M124.627 24.729L129.708 18.988C129.744 18.9448 129.768 18.8922 129.776 18.8362C129.784 18.7802 129.776 18.723 129.753 18.6714C129.73 18.6197 129.692 18.5756 129.645 18.5443C129.598 18.5129 129.543 18.4954 129.487 18.494H124.787C124.745 18.4936 124.703 18.5024 124.664 18.5196C124.626 18.5369 124.592 18.5622 124.564 18.594L119.056 24.937C119.015 24.9807 118.963 25.0114 118.905 25.0251C118.847 25.0388 118.786 25.035 118.73 25.0141C118.674 24.9931 118.626 24.9561 118.592 24.9076C118.557 24.8592 118.537 24.8015 118.536 24.742V11.853C118.536 11.7744 118.505 11.699 118.45 11.6429C118.395 11.5868 118.32 11.5545 118.242 11.553H114.228C114.148 11.553 114.072 11.5846 114.016 11.6408C113.959 11.6971 113.928 11.7734 113.928 11.853V34.37C113.928 34.4495 113.959 34.5258 114.016 34.5821C114.072 34.6384 114.148 34.67 114.228 34.67H118.242C118.32 34.6684 118.395 34.6361 118.45 34.58C118.505 34.5239 118.536 34.4485 118.536 34.37V30.749C118.536 30.71 118.543 30.6713 118.558 30.6352C118.573 30.5992 118.595 30.5665 118.623 30.539L120.89 28.264C120.922 28.232 120.96 28.2077 121.003 28.1931C121.046 28.1784 121.091 28.1739 121.136 28.1797C121.181 28.1855 121.224 28.2015 121.261 28.2265C121.299 28.2516 121.33 28.2849 121.353 28.324L124.99 34.524C125.016 34.568 125.053 34.6045 125.098 34.6301C125.142 34.6557 125.192 34.6694 125.244 34.67H129.701C129.753 34.6689 129.803 34.6544 129.848 34.6279C129.893 34.6013 129.93 34.5636 129.956 34.5184C129.981 34.4733 129.995 34.4222 129.995 34.3702C129.995 34.3183 129.981 34.2672 129.956 34.222L124.589 25.08C124.557 25.0256 124.544 24.9628 124.55 24.9003C124.557 24.8379 124.582 24.779 124.624 24.732" fill="white"/>
<path d="M105.881 18.218C104.135 18.1866 102.434 18.7755 101.081 19.88C101.037 19.9138 100.985 19.9348 100.93 19.9407C100.875 19.9465 100.819 19.937 100.769 19.9132C100.719 19.8894 100.677 19.8522 100.647 19.8057C100.616 19.7593 100.6 19.7054 100.598 19.65V18.791C100.598 18.7123 100.567 18.6367 100.512 18.5806C100.457 18.5245 100.382 18.4923 100.303 18.491H96.4992C96.4197 18.491 96.3433 18.5226 96.2871 18.5789C96.2308 18.6351 96.1992 18.7114 96.1992 18.791V34.37C96.1992 34.4496 96.2308 34.5259 96.2871 34.5821C96.3433 34.6384 96.4197 34.67 96.4992 34.67H100.513C100.593 34.67 100.669 34.6384 100.725 34.5821C100.782 34.5259 100.813 34.4496 100.813 34.37V23.9C100.814 23.8301 100.838 23.7626 100.883 23.709C101.258 23.2419 101.735 22.8667 102.276 22.6121C102.818 22.3575 103.411 22.2302 104.01 22.24C104.459 22.1986 104.912 22.2681 105.327 22.4425C105.743 22.6169 106.11 22.8907 106.395 23.24C106.939 24.2055 107.179 25.3121 107.085 26.416V34.37C107.085 34.4496 107.117 34.5259 107.173 34.5821C107.229 34.6384 107.306 34.67 107.385 34.67H111.429C111.509 34.67 111.585 34.6384 111.641 34.5821C111.698 34.5259 111.729 34.4496 111.729 34.37V24.9C111.729 22.5 111.276 20.764 110.382 19.743C109.488 18.722 107.982 18.222 105.891 18.222" fill="white"/>
<path d="M89.4932 19.528C89.4911 19.585 89.4727 19.6401 89.4404 19.687C89.408 19.7339 89.363 19.7706 89.3106 19.7928C89.2581 19.8151 89.2004 19.8219 89.1442 19.8126C89.088 19.8032 89.0356 19.7781 88.9932 19.74C88.3972 19.2009 87.6997 18.7859 86.9415 18.5192C86.1833 18.2526 85.3796 18.1397 84.5772 18.187C83.5749 18.1515 82.5773 18.3395 81.6566 18.7373C80.7359 19.1351 79.9153 19.7328 79.2542 20.487C77.84 22.2237 77.1184 24.4221 77.2282 26.659C77.1148 28.8911 77.8484 31.0836 79.2822 32.798C79.9799 33.5536 80.834 34.1479 81.7849 34.5395C82.7359 34.931 83.7608 35.1104 84.7882 35.065C85.5854 35.1281 86.3865 35.0097 87.1313 34.7185C87.8761 34.4273 88.5452 33.9711 89.0882 33.384C89.1281 33.3392 89.1806 33.3073 89.2387 33.2926C89.2969 33.2779 89.3582 33.2809 89.4146 33.3014C89.4711 33.3219 89.5201 33.3588 89.5553 33.4074C89.5905 33.456 89.6103 33.514 89.6122 33.574V34.374C89.6122 34.4536 89.6438 34.5299 89.7001 34.5862C89.7564 34.6424 89.8327 34.674 89.9122 34.674H93.7442C93.8238 34.674 93.9001 34.6424 93.9564 34.5862C94.0126 34.5299 94.0442 34.4536 94.0442 34.374V18.79C94.0442 18.7105 94.0126 18.6342 93.9564 18.5779C93.9001 18.5216 93.8238 18.49 93.7442 18.49H89.7892C89.7097 18.49 89.6334 18.5216 89.5771 18.5779C89.5208 18.6342 89.4892 18.7105 89.4892 18.79L89.4932 19.528ZM88.6092 29.857L88.5872 29.881C88.2538 30.2738 87.8343 30.5845 87.3614 30.789C86.8885 30.9934 86.3748 31.0862 85.8602 31.06H85.7832C85.2687 31.0862 84.755 30.9934 84.2821 30.789C83.8091 30.5845 83.3897 30.2738 83.0562 29.881L83.0342 29.857C82.3118 28.9337 81.9487 27.7797 82.0122 26.609C81.9883 25.7685 82.1555 24.9335 82.5012 24.167L82.5362 24.1C82.6712 23.8331 82.8392 23.5841 83.0362 23.359C83.3735 22.9761 83.7915 22.6726 84.2601 22.4705C84.7287 22.2684 85.2362 22.1726 85.7462 22.19H85.9002C86.4103 22.1725 86.9178 22.2683 87.3864 22.4704C87.855 22.6726 88.273 22.976 88.6102 23.359C88.8069 23.5844 88.9749 23.8333 89.1102 24.1L89.1452 24.167C89.491 24.9335 89.6582 25.7685 89.6342 26.609C89.6978 27.7797 89.3346 28.9337 88.6122 29.857" fill="white"/>
<path d="M68.2478 18.187C67.4454 18.1396 66.6417 18.2525 65.8835 18.5191C65.1253 18.7857 64.4278 19.2008 63.8318 19.74C63.7893 19.778 63.737 19.8032 63.6808 19.8125C63.6246 19.8219 63.5669 19.815 63.5144 19.7928C63.462 19.7705 63.4169 19.7338 63.3846 19.6869C63.3522 19.6401 63.3339 19.5849 63.3318 19.528V11.852C63.3318 11.7724 63.3001 11.6961 63.2439 11.6399C63.1876 11.5836 63.1113 11.552 63.0317 11.552H59.0188C58.9392 11.552 58.8629 11.5836 58.8066 11.6399C58.7504 11.6961 58.7188 11.7724 58.7188 11.852V34.369C58.7188 34.4486 58.7504 34.5249 58.8066 34.5811C58.8629 34.6374 58.9392 34.669 59.0188 34.669H62.9128C62.9923 34.669 63.0686 34.6374 63.1249 34.5811C63.1811 34.5249 63.2128 34.4486 63.2128 34.369V33.569C63.2148 33.5091 63.2348 33.4512 63.2701 33.4027C63.3054 33.3543 63.3544 33.3175 63.4108 33.2972C63.4672 33.2768 63.5284 33.2738 63.5865 33.2886C63.6446 33.3034 63.6969 33.3352 63.7368 33.38C64.2853 33.9697 64.9603 34.4273 65.7112 34.7184C66.462 35.0096 67.2691 35.1267 68.0718 35.061C69.0923 35.1051 70.1101 34.9251 71.0536 34.5336C71.997 34.1421 72.8433 33.5487 73.5327 32.795C74.9574 31.0759 75.685 28.8848 75.5718 26.655C75.6818 24.4201 74.9656 22.2228 73.5597 20.482C72.9019 19.7285 72.084 19.1315 71.1658 18.7346C70.2476 18.3377 69.2524 18.151 68.2528 18.188M69.7928 29.858L69.7707 29.882C69.4373 30.2748 69.0178 30.5854 68.5449 30.7899C68.072 30.9944 67.5583 31.0871 67.0438 31.061H66.9668C66.4522 31.0871 65.9385 30.9944 65.4656 30.7899C64.9927 30.5854 64.5732 30.2748 64.2397 29.882L64.2178 29.858C63.4953 28.9346 63.1322 27.7807 63.1958 26.61C63.1718 25.7695 63.339 24.9345 63.6847 24.168L63.7198 24.101C63.8547 23.834 64.0227 23.5851 64.2198 23.36C64.5571 22.9771 64.975 22.6736 65.4436 22.4715C65.9122 22.2693 66.4197 22.1736 66.9298 22.191H67.0788C67.5888 22.1735 68.0963 22.2692 68.5649 22.4714C69.0335 22.6735 69.4515 22.977 69.7888 23.36C69.9858 23.5851 70.1538 23.834 70.2888 24.101L70.3237 24.168C70.6695 24.9345 70.8367 25.7695 70.8127 26.61C70.8763 27.7807 70.5132 28.9346 69.7908 29.858" fill="white"/>
<path d="M41.45 3.40108e-07H16.121C14.5883 -0.000393008 13.0748 0.340411 11.6902 0.997684C10.3056 1.65496 9.08467 2.61221 8.11602 3.8C8.09702 3.822 8.07702 3.844 8.05802 3.867L8.00002 3.931L7.94302 4C7.92402 4.023 7.90402 4.045 7.88502 4.067C7.86602 4.089 7.84602 4.112 7.82802 4.135L7.77002 4.2L7.71202 4.268L7.65502 4.335L7.60002 4.405C7.58102 4.428 7.56102 4.45 7.54302 4.473L7.48502 4.54L7.42702 4.608C7.40902 4.631 7.38902 4.653 7.37002 4.676L7.31202 4.744L7.25502 4.811L7.19702 4.879C7.17802 4.902 7.15802 4.924 7.14002 4.947L7.08202 5.014L7.02402 5.082L6.96702 5.15L6.90902 5.218C6.89002 5.24 6.87002 5.262 6.85202 5.285L6.79402 5.353L6.73602 5.421L6.67902 5.488L6.62102 5.556C6.60202 5.579 6.58202 5.601 6.56402 5.624L6.50002 5.692C6.48102 5.714 6.46102 5.736 6.44302 5.759L6.38502 5.827L6.32702 5.895L6.27002 5.962L6.21202 6.03C6.19302 6.053 6.17302 6.075 6.15502 6.098C6.13702 6.121 6.11602 6.143 6.09702 6.165L6.03902 6.233L5.98502 6.3L5.92702 6.368C5.90802 6.39 5.88802 6.412 5.87002 6.435L5.81202 6.5L5.75402 6.568L5.70002 6.639L5.64202 6.707C5.62302 6.73 5.60302 6.752 5.58502 6.775L5.52702 6.843C5.50802 6.865 5.48802 6.887 5.47002 6.91L5.41202 6.978L5.35402 7.046L5.29702 7.113L5.23902 7.181C5.22002 7.204 5.20002 7.226 5.18202 7.249L5.12402 7.317C5.10502 7.339 5.08502 7.361 5.06602 7.384L5.00902 7.452L4.95102 7.52C4.93202 7.542 4.91202 7.564 4.89402 7.587L4.83602 7.655C4.81702 7.678 4.79702 7.7 4.77902 7.723L4.72102 7.791C4.70202 7.813 4.68202 7.835 4.66302 7.858L4.60002 7.926L4.54202 7.994C4.52302 8.016 4.50302 8.038 4.48502 8.061L4.42702 8.129L4.37202 8.2L4.31502 8.268C4.29602 8.29 4.27602 8.312 4.25702 8.335C4.23802 8.358 4.21802 8.38 4.20002 8.403L4.14202 8.471C4.12302 8.493 4.10302 8.515 4.08402 8.538L4.02702 8.6L3.96902 8.668L3.91202 8.735L3.85402 8.803C3.83502 8.826 3.81502 8.848 3.79702 8.871L3.73902 8.939C3.72002 8.961 3.70002 8.983 3.68102 9.006L3.62402 9.074L3.56602 9.142C3.54702 9.164 3.52702 9.186 3.50902 9.209L3.45102 9.277L3.39302 9.345L3.33602 9.413C3.31702 9.435 3.29702 9.457 3.27802 9.48C3.25902 9.503 3.23902 9.525 3.22102 9.548L3.16302 9.616L3.10502 9.683L3.04802 9.751L2.99002 9.819L2.93302 9.887C2.91402 9.909 2.89402 9.931 2.87502 9.954C2.85602 9.977 2.83602 9.999 2.81802 10.022L2.76002 10.09C2.74102 10.112 2.72102 10.134 2.70202 10.157L2.64502 10.225L2.58702 10.293C2.56802 10.316 2.54802 10.338 2.53002 10.361C2.51202 10.384 2.49102 10.405 2.47202 10.428C2.45302 10.451 2.43302 10.473 2.41502 10.496L2.35702 10.564C0.829882 12.3895 -0.00471078 14.695 2.00018e-05 17.075V41.858C-0.00475959 44.542 1.05647 47.1181 2.95042 49.0199C4.84436 50.9217 7.41601 51.9936 10.1 52H34.8C37.1729 52.0023 39.4699 51.1645 41.284 49.635L41.352 49.577L41.419 49.519L41.487 49.461L41.554 49.403C41.577 49.385 41.599 49.365 41.622 49.346L41.689 49.288L41.757 49.23L41.824 49.172L41.891 49.115L41.959 49.057L42.027 49L42.095 48.942L42.162 48.884L42.23 48.826C42.253 48.808 42.275 48.788 42.297 48.769L42.365 48.711L42.432 48.653L42.5 48.595L42.567 48.537C42.59 48.519 42.612 48.499 42.634 48.48L42.702 48.422L42.769 48.364L42.837 48.306L42.905 48.248L42.972 48.191L43.039 48.133L43.107 48.075L43.174 48.017L43.242 47.96L43.309 47.902L43.377 47.844L43.444 47.786L43.512 47.728L43.579 47.671L43.647 47.613L43.714 47.555L43.782 47.497L43.849 47.439C43.872 47.421 43.894 47.401 43.916 47.382L43.984 47.324L44.051 47.266L44.119 47.208L44.186 47.15C44.209 47.132 44.231 47.112 44.254 47.093L44.321 47.035L44.389 46.977L44.456 46.919L44.524 46.861C44.547 46.843 44.568 46.823 44.591 46.804L44.659 46.746L44.726 46.688L44.793 46.63L44.861 46.572C44.884 46.554 44.906 46.534 44.928 46.515L45 46.456L45.067 46.398L45.135 46.34L45.202 46.283L45.27 46.225L45.337 46.167L45.405 46.109L45.472 46.051L45.54 45.994L45.607 45.936L45.675 45.878L45.742 45.82L45.809 45.762C45.832 45.744 45.854 45.724 45.877 45.705L45.944 45.647L46.012 45.589L46.079 45.531L46.147 45.473C46.17 45.455 46.192 45.435 46.214 45.416L46.282 45.358L46.349 45.3L46.417 45.242L46.484 45.184C46.507 45.166 46.529 45.146 46.552 45.127L46.619 45.069L46.687 45.011L46.754 44.953L46.821 44.896L46.889 44.838L46.956 44.78L47.024 44.722L47.092 44.664L47.159 44.607L47.226 44.549L47.294 44.491L47.361 44.433L47.429 44.375L47.496 44.318L47.564 44.26L47.631 44.202L47.699 44.144L47.766 44.086L47.834 44.028L47.901 43.971L47.969 43.913L48.036 43.855C49.2203 42.878 50.1737 41.651 50.8276 40.2619C51.4815 38.8729 51.8197 37.3563 51.818 35.821V10.4C51.8203 9.03632 51.5538 7.68555 51.034 6.42484C50.5141 5.16413 49.751 4.01818 48.7882 3.05242C47.8254 2.08667 46.6818 1.32003 45.4227 0.796288C44.1636 0.272549 42.8137 0.00196858 41.45 3.40108e-07M48.36 35.822C48.3616 36.7309 48.1841 37.6312 47.8378 38.4715C47.4914 39.3118 46.983 40.0756 46.3414 40.7194C45.6998 41.3632 44.9378 41.8743 44.0987 42.2236C43.2596 42.5728 42.3599 42.7534 41.451 42.755H16.12C15.2111 42.7534 14.3115 42.5728 13.4724 42.2236C12.6333 41.8743 11.8712 41.3632 11.2296 40.7194C10.5881 40.0756 10.0796 39.3118 9.73325 38.4715C9.3869 37.6312 9.20944 36.7309 9.21102 35.822V10.4C9.20783 8.56434 9.93392 6.80259 11.2296 5.50224C12.5252 4.20189 14.2844 3.46945 16.12 3.466H41.451C43.2867 3.46945 45.0458 4.20189 46.3415 5.50224C47.6371 6.80259 48.3632 8.56434 48.36 10.4V35.822Z" fill="#33363B"/>
<path d="M38.0008 11.556H36.6618C36.2163 11.557 35.7807 11.6874 35.4079 11.9313C35.0351 12.1752 34.7412 12.5222 34.5618 12.93L34.5548 12.935L34.5238 13.022C34.5068 13.065 34.4908 13.109 34.4768 13.153L29.0638 28.253C29.0447 28.3099 29.0081 28.3594 28.9593 28.3945C28.9105 28.4295 28.8519 28.4484 28.7918 28.4484C28.7318 28.4484 28.6732 28.4295 28.6244 28.3945C28.5756 28.3594 28.539 28.3099 28.5198 28.253L23.0228 12.935L23.0008 12.924C22.8209 12.5181 22.5274 12.1729 22.1556 11.9302C21.7839 11.6874 21.3498 11.5575 20.9058 11.556H15.2648C15.2254 11.556 15.1864 11.5637 15.15 11.5788C15.1136 11.5939 15.0806 11.616 15.0527 11.6438C15.0249 11.6717 15.0028 11.7048 14.9877 11.7412C14.9726 11.7776 14.9648 11.8166 14.9648 11.856V34.369C14.9648 34.4084 14.9726 34.4474 14.9877 34.4838C15.0028 34.5202 15.0249 34.5533 15.0527 34.5811C15.0806 34.609 15.1136 34.6311 15.15 34.6461C15.1864 34.6612 15.2254 34.669 15.2648 34.669H19.2788C19.3584 34.669 19.4347 34.6374 19.491 34.5811C19.5472 34.5248 19.5788 34.4485 19.5788 34.369V17.747C19.5797 17.6949 19.5941 17.644 19.6206 17.5992C19.6471 17.5544 19.6848 17.5173 19.73 17.4914C19.7752 17.4656 19.8263 17.452 19.8783 17.4519C19.9304 17.4518 19.9816 17.4653 20.0268 17.491C20.258 17.627 20.4347 17.8391 20.5268 18.091L25.8268 32.9L25.8338 32.924C25.9589 33.4214 26.2463 33.863 26.6506 34.1787C27.0549 34.4944 27.5529 34.6662 28.0658 34.667H29.5068C30.0198 34.6662 30.5178 34.4944 30.9221 34.1787C31.3264 33.863 31.6138 33.4214 31.7388 32.924C31.7407 32.9165 31.7431 32.9092 31.7458 32.902L37.0458 18.123C37.0512 18.1156 37.0555 18.1075 37.0588 18.099C37.1486 17.846 37.3236 17.632 37.5538 17.494C37.5991 17.4681 37.6503 17.4544 37.7024 17.4543C37.7545 17.4542 37.8057 17.4677 37.851 17.4935C37.8964 17.5192 37.9342 17.5563 37.9608 17.6011C37.9874 17.6459 38.0019 17.6969 38.0028 17.749V34.369C38.0028 34.4485 38.0344 34.5248 38.0907 34.5811C38.147 34.6374 38.2233 34.669 38.3028 34.669H42.3168C42.3964 34.669 42.4727 34.6374 42.529 34.5811C42.5852 34.5248 42.6168 34.4485 42.6168 34.369V11.853C42.6168 11.7734 42.5852 11.6971 42.529 11.6408C42.4727 11.5846 42.3964 11.553 42.3168 11.553L38.0008 11.556Z" fill="white"/>
</svg>
