<svg width="52" height="52" viewBox="0 0 52 52" fill="none" xmlns="http://www.w3.org/2000/svg">
<path d="M41.45 3.40108e-07H16.121C14.5883 -0.000393008 13.0748 0.340411 11.6902 0.997684C10.3056 1.65496 9.08467 2.61221 8.11602 3.8C8.09702 3.822 8.07702 3.844 8.05802 3.867L8.00002 3.931L7.94302 4C7.92402 4.023 7.90402 4.045 7.88502 4.067C7.86602 4.089 7.84602 4.112 7.82802 4.135L7.77002 4.2L7.71202 4.268L7.65502 4.335L7.60002 4.405C7.58102 4.428 7.56102 4.45 7.54302 4.473L7.48502 4.54L7.42702 4.608C7.40902 4.631 7.38902 4.653 7.37002 4.676L7.31202 4.744L7.25502 4.811L7.19702 4.879C7.17802 4.902 7.15802 4.924 7.14002 4.947L7.08202 5.014L7.02402 5.082L6.96702 5.15L6.90902 5.218C6.89002 5.24 6.87002 5.262 6.85202 5.285L6.79402 5.353L6.73602 5.421L6.67902 5.488L6.62102 5.556C6.60202 5.579 6.58202 5.601 6.56402 5.624L6.50002 5.692C6.48102 5.714 6.46102 5.736 6.44302 5.759L6.38502 5.827L6.32702 5.895L6.27002 5.962L6.21202 6.03C6.19302 6.053 6.17302 6.075 6.15502 6.098C6.13702 6.121 6.11602 6.143 6.09702 6.165L6.03902 6.233L5.98502 6.3L5.92702 6.368C5.90802 6.39 5.88802 6.412 5.87002 6.435L5.81202 6.5L5.75402 6.568L5.70002 6.639L5.64202 6.707C5.62302 6.73 5.60302 6.752 5.58502 6.775L5.52702 6.843C5.50802 6.865 5.48802 6.887 5.47002 6.91L5.41202 6.978L5.35402 7.046L5.29702 7.113L5.23902 7.181C5.22002 7.204 5.20002 7.226 5.18202 7.249L5.12402 7.317C5.10502 7.339 5.08502 7.361 5.06602 7.384L5.00902 7.452L4.95102 7.52C4.93202 7.542 4.91202 7.564 4.89402 7.587L4.83602 7.655C4.81702 7.678 4.79702 7.7 4.77902 7.723L4.72102 7.791C4.70202 7.813 4.68202 7.835 4.66302 7.858L4.60002 7.926L4.54202 7.994C4.52302 8.016 4.50302 8.038 4.48502 8.061L4.42702 8.129L4.37202 8.2L4.31502 8.268C4.29602 8.29 4.27602 8.312 4.25702 8.335C4.23802 8.358 4.21802 8.38 4.20002 8.403L4.14202 8.471C4.12302 8.493 4.10302 8.515 4.08402 8.538L4.02702 8.6L3.96902 8.668L3.91202 8.735L3.85402 8.803C3.83502 8.826 3.81502 8.848 3.79702 8.871L3.73902 8.939C3.72002 8.961 3.70002 8.983 3.68102 9.006L3.62402 9.074L3.56602 9.142C3.54702 9.164 3.52702 9.186 3.50902 9.209L3.45102 9.277L3.39302 9.345L3.33602 9.413C3.31702 9.435 3.29702 9.457 3.27802 9.48C3.25902 9.503 3.23902 9.525 3.22102 9.548L3.16302 9.616L3.10502 9.683L3.04802 9.751L2.99002 9.819L2.93302 9.887C2.91402 9.909 2.89402 9.931 2.87502 9.954C2.85602 9.977 2.83602 9.999 2.81802 10.022L2.76002 10.09C2.74102 10.112 2.72102 10.134 2.70202 10.157L2.64502 10.225L2.58702 10.293C2.56802 10.316 2.54802 10.338 2.53002 10.361C2.51202 10.384 2.49102 10.405 2.47202 10.428C2.45302 10.451 2.43302 10.473 2.41502 10.496L2.35702 10.564C0.829882 12.3895 -0.00471078 14.695 2.00018e-05 17.075V41.858C-0.00475959 44.542 1.05647 47.1181 2.95042 49.0199C4.84436 50.9217 7.41601 51.9936 10.1 52H34.8C37.1729 52.0023 39.4699 51.1645 41.284 49.635L41.352 49.577L41.419 49.519L41.487 49.461L41.554 49.403C41.577 49.385 41.599 49.365 41.622 49.346L41.689 49.288L41.757 49.23L41.824 49.172L41.891 49.115L41.959 49.057L42.027 49L42.095 48.942L42.162 48.884L42.23 48.826C42.253 48.808 42.275 48.788 42.297 48.769L42.365 48.711L42.432 48.653L42.5 48.595L42.567 48.537C42.59 48.519 42.612 48.499 42.634 48.48L42.702 48.422L42.769 48.364L42.837 48.306L42.905 48.248L42.972 48.191L43.039 48.133L43.107 48.075L43.174 48.017L43.242 47.96L43.309 47.902L43.377 47.844L43.444 47.786L43.512 47.728L43.579 47.671L43.647 47.613L43.714 47.555L43.782 47.497L43.849 47.439C43.872 47.421 43.894 47.401 43.916 47.382L43.984 47.324L44.051 47.266L44.119 47.208L44.186 47.15C44.209 47.132 44.231 47.112 44.254 47.093L44.321 47.035L44.389 46.977L44.456 46.919L44.524 46.861C44.547 46.843 44.568 46.823 44.591 46.804L44.659 46.746L44.726 46.688L44.793 46.63L44.861 46.572C44.884 46.554 44.906 46.534 44.928 46.515L45 46.456L45.067 46.398L45.135 46.34L45.202 46.283L45.27 46.225L45.337 46.167L45.405 46.109L45.472 46.051L45.54 45.994L45.607 45.936L45.675 45.878L45.742 45.82L45.809 45.762C45.832 45.744 45.854 45.724 45.877 45.705L45.944 45.647L46.012 45.589L46.079 45.531L46.147 45.473C46.17 45.455 46.192 45.435 46.214 45.416L46.282 45.358L46.349 45.3L46.417 45.242L46.484 45.184C46.507 45.166 46.529 45.146 46.552 45.127L46.619 45.069L46.687 45.011L46.754 44.953L46.821 44.896L46.889 44.838L46.956 44.78L47.024 44.722L47.092 44.664L47.159 44.607L47.226 44.549L47.294 44.491L47.361 44.433L47.429 44.375L47.496 44.318L47.564 44.26L47.631 44.202L47.699 44.144L47.766 44.086L47.834 44.028L47.901 43.971L47.969 43.913L48.036 43.855C49.2203 42.878 50.1737 41.651 50.8276 40.2619C51.4815 38.8729 51.8197 37.3563 51.818 35.821V10.4C51.8203 9.03632 51.5538 7.68555 51.034 6.42484C50.5141 5.16413 49.751 4.01818 48.7882 3.05242C47.8254 2.08667 46.6818 1.32003 45.4227 0.796288C44.1636 0.272549 42.8137 0.00196858 41.45 3.40108e-07ZM48.36 35.822C48.3616 36.7309 48.1841 37.6312 47.8378 38.4715C47.4914 39.3118 46.983 40.0756 46.3414 40.7194C45.6998 41.3632 44.9378 41.8743 44.0987 42.2236C43.2596 42.5728 42.3599 42.7534 41.451 42.755H16.12C15.2111 42.7534 14.3115 42.5728 13.4724 42.2236C12.6333 41.8743 11.8712 41.3632 11.2296 40.7194C10.5881 40.0756 10.0796 39.3118 9.73325 38.4715C9.3869 37.6312 9.20944 36.7309 9.21102 35.822V10.4C9.20784 8.56434 9.93392 6.80259 11.2296 5.50224C12.5252 4.20189 14.2844 3.46944 16.12 3.466H41.451C43.2867 3.46944 45.0458 4.20189 46.3415 5.50224C47.6371 6.80259 48.3632 8.56434 48.36 10.4V35.822Z" fill="#33363B"/>
</svg>
